{"title":"How.To.Train.Your.Dragon.2 (2014).mkv","uid":13132337,"size":4485665304,"categoryP":"video","categoryS":"hd___movies","magnet":"?xt=urn:btih:2be8d88533d9acc8f255072b351ce03696f17cee&amp;dn=How.To.Train.Your.Dragon.2+%282014%29.mkv&amp;tr=udp%3A%2F%2Ftracker.leechers-paradise.org%3A6969&amp;tr=udp%3A%2F%2Fzer0day.ch%3A1337&amp;tr=udp%3A%2F%2Fopen.demonii.com%3A1337&amp;tr=udp%3A%2F%2Ftracker.coppersurfer.tk%3A6969&amp;tr=udp%3A%2F%2Fexodus.desync.com%3A6969","seeders":1,"leechers":0,"uploader":"diseltuc","files":1,"time":1451855150,"description":"Format                                   : Matroska\r\nFormat version                           : Version 4 / Version 2\r\nFile size                                : 4.18 GiB\r\nDuration                                 : 1h 41mn\r\nOverall bit rate                         : 5 868 Kbps\r\nMovie name                               : RARBG.COM - How.to.Train.Your.Dragon.2.2014.720p.BluRay.x264.DTS-RARBG\r\nEncoded date                             : UTC 2014-10-25 16:02:06\r\nWriting application                      : mkvmerge v7.3.0 ('Nouages') 64bit built on Oct 22 2014 18:53:34\r\nWriting library                          : libebml v1.3.0 + libmatroska v1.4.1\r\nTITLE                                    : How To Train Your Dragon 2\r\nDURATION                                 : 01:40:28.940000000\r\nNUMBER_OF_FRAMES                         : 2292\r\nNUMBER_OF_BYTES                          : 6078512\r\n_STATISTICS_WRITING_APP                  : mkvmerge v7.3.0 ('Nouages') 64bit built on Oct 22 2014 18:53:34\r\n_STATISTICS_WRITING_DATE_UTC             : 2014-10-25 16:02:06\r\n_STATISTICS_TAGS                         : BPS DURATION NUMBER_OF_FRAMES NUMBER_OF_BYTES\r\n\r\nVideo\r\nID                                       : 3\r\nFormat                                   : AVC\r\nFormat/Info                              : Advanced Video Codec\r\nFormat profile                           :   \r\nFormat settings, CABAC                   : Yes\r\nFormat settings, ReFrames                : 4 frames\r\nCodec ID                                 : V_MPEG4/ISO/AVC\r\nDuration                                 : 1h 41mn\r\nBit rate                                 : 5 500 Kbps\r\nWidth                                    : 1 280 pixels\r\nHeight                                   : 544 pixels\r\nDisplay aspect ratio                     : 2.35:1\r\nFrame rate                               : 23.976 fps\r\nColor space                              : YUV\r\nChroma subsampling                       : 4:2:0\r\nBit depth                                : 8 bits\r\nScan type                                : Progressive\r\nBits/(Pixel*Frame)                       : 0.329\r\nStream size                              : 3.82 GiB (91%)\r\nTitle                                    : How.to.Train.Your.Dragon.2.2014.720p.BluRay.x264.DTS-RARBG\r\nWriting library                          : x264 core 142 r2479 dd79a61\r\nEncoding settings                        : cabac=1 / ref=4 / deblock=1:0:0 / analyse=0x3:0x113 / me=umh / subme=8 / psy=1 / psy_rd=1.00:0.00 / mixed_ref=1 / me_range=16 / chroma_me=1 / trellis=1 / 8x8dct=1 / cqm=0 / deadzone=21,11 / fast_pskip=1 / chroma_qp_offset=-2 / threads=12 / lookahead_threads=2 / sliced_threads=0 / nr=0 / decimate=1 / interlaced=0 / bluray_compat=0 / constrained_intra=0 / bframes=3 / b_pyramid=2 / b_adapt=2 / b_bias=0 / direct=3 / weightb=1 / open_gop=0 / weightp=2 / keyint=240 / keyint_min=24 / scenecut=40 / intra_refresh=0 / rc_lookahead=50 / rc=abr / mbtree=1 / bitrate=5500 / ratetol=1.0 / qcomp=0.60 / qpmin=0 / qpmax=69 / qpstep=4 / vbv_maxrate=62500 / vbv_bufsize=78125 / nal_hrd=none / filler=0 / ip_ratio=1.40 / aq=1:1.00\r\nDefault                                  : Yes\r\nForced                                   : No\r\nColor primaries                          : BT.709-5, BT.1361, IEC 61966-2-4, SMPTE RP177\r\nTransfer characteristics                 : BT.709-5, BT.1361\r\nMatrix coefficients                      : BT.709-5, BT.1361, IEC 61966-2-4 709, SMPTE RP177\r\n\r\nAudio\r\nID                                       : 1\r\nFormat                                   : AC-3\r\nFormat/Info                              : Audio Coding 3\r\nMode extension                           : CM (complete main)\r\nFormat settings, Endianness              : Big\r\nCodec ID                                 : A_AC3\r\nDuration                                 : 1h 41mn\r\nBit rate mode                            : Constant\r\nBit rate                                 : 384 Kbps\r\nChannel(s)                               : 6 channels\r\nChannel positions                        : Front: L C R, Side: L R, LFE\r\nSampling rate                            : 48.0 KHz\r\nBit depth                                : 16 bits\r\nCompression mode                         : Lossy\r\nStream size                              : 280 MiB (7%)\r\nLanguage                                 : Swedish\r\nDefault                                  : Yes\r\nForced                                   : No\r\nDURATION                                 : 01:41:55.109000000\r\nNUMBER_OF_FRAMES                         : 146616\r\nNUMBER_OF_BYTES                          : 4184596093\r\n_STATISTICS_WRITING_APP                  : mkvmerge v7.3.0 ('Nouages') 64bit built on Oct 22 2014 18:53:34\r\n_STATISTICS_WRITING_DATE_UTC             : 2014-10-25 16:02:06\r\n_STATISTICS_TAGS                         : BPS DURATION NUMBER_OF_FRAMES NUMBER_OF_BYTES\r\n\r\nText\r\nID                                       : 2\r\nFormat                                   : PGS\r\nMuxing mode                              : zlib\r\nCodec ID                                 : S_HDMV/PGS\r\nCodec ID/Info                            : The same subtitle format used on BDs/HD-DVDs\r\nLanguage                                 : Swedish\r\nDefault                                  : No\r\nForced                                   : No","torrent":{"xt":"urn:btih:2be8d88533d9acc8f255072b351ce03696f17cee","amp;dn":"How.To.Train.Your.Dragon.2+%282014%29.mkv","amp;tr":["udp%3A%2F%2Ftracker.leechers-paradise.org%3A6969","udp%3A%2F%2Fzer0day.ch%3A1337","udp%3A%2F%2Fopen.demonii.com%3A1337","udp%3A%2F%2Ftracker.coppersurfer.tk%3A6969","udp%3A%2F%2Fexodus.desync.com%3A6969"],"infoHash":"2be8d88533d9acc8f255072b351ce03696f17cee","infoHashBuffer":{"type":"Buffer","data":[43,232,216,133,51,217,172,200,242,85,7,43,53,28,224,54,150,241,124,238]},"announce":[],"urlList":[]}}